HIERARCHY
ROOT Hips
{
	OFFSET -14.64140 90.27770 -84.91600
	CHANNELS 6 Xposition Yposition Zposition Zrotation Xrotation Yrotation
	JOINT Spine
	{
		OFFSET 0.00000 13.20850 -1.60436
		CHANNELS 3 Zrotation Xrotation Yrotation
		JOINT Spine1
		{
			OFFSET 0.00000 8.61716 0.00000
			CHANNELS 3 Zrotation Xrotation Yrotation
			JOINT Spine2
			{
				OFFSET 0.00000 8.61717 0.00000
				CHANNELS 3 Zrotation Xrotation Yrotation
				JOINT Spine3
				{
					OFFSET 0.00000 8.61717 0.00000
					CHANNELS 3 Zrotation Xrotation Yrotation
					JOINT Neck
					{
						OFFSET 0.00000 11.07920 1.10792
						CHANNELS 3 Zrotation Xrotation Yrotation
						JOINT Neck1
						{
							OFFSET 0.00000 7.08032 0.00000
							CHANNELS 3 Zrotation Xrotation Yrotation
							JOINT Head
							{
								OFFSET 0.00000 7.08031 0.00000
								CHANNELS 3 Zrotation Xrotation Yrotation
								End site
								{
									OFFSET 0.00000 0.00000 0.00000
								}
							}
						}
					}
					JOINT RightShoulder
					{
						OFFSET -0.01000 7.91373 5.19711
						CHANNELS 3 Zrotation Xrotation Yrotation
						JOINT RightArm
						{
							OFFSET -18.41580 0.00000 0.00000
							CHANNELS 3 Zrotation Xrotation Yrotation
							JOINT RightForeArm
							{
								OFFSET -29.11090 0.00000 0.00000
								CHANNELS 3 Zrotation Xrotation Yrotation
								JOINT RightHand
								{
									OFFSET -24.65040 0.00000 0.00000
									CHANNELS 3 Zrotation Xrotation Yrotation
									JOINT RightHandThumb1
									{
										OFFSET -5.35114 -0.85590 3.97906
										CHANNELS 3 Zrotation Xrotation Yrotation
										JOINT RightHandThumb2
										{
											OFFSET -4.52789 0.00000 0.00000
											CHANNELS 3 Zrotation Xrotation Yrotation
											JOINT RightHandThumb3
											{
												OFFSET -2.46976 0.00000 0.00000
												CHANNELS 3 Zrotation Xrotation Yrotation
												End site
												{
													OFFSET 0.00000 0.00000 0.00000
												}
											}
										}
									}
									JOINT RightHandIndex1
									{
										OFFSET -14.26970 0.00000 2.88139
										CHANNELS 3 Zrotation Xrotation Yrotation
										JOINT RightHandIndex2
										{
											OFFSET -5.48836 0.00000 0.00000
											CHANNELS 3 Zrotation Xrotation Yrotation
											JOINT RightHandIndex3
											{
												OFFSET -3.01859 0.00000 0.00000
												CHANNELS 3 Zrotation Xrotation Yrotation
												End site
												{
													OFFSET 0.00000 0.00000 0.00000
												}
											}
										}
									}
									JOINT RightHandMiddle1
									{
										OFFSET -14.26970 0.00000 -0.09147
										CHANNELS 3 Zrotation Xrotation Yrotation
										JOINT RightHandMiddle2
										{
											OFFSET -6.17441 0.00000 0.00000
											CHANNELS 3 Zrotation Xrotation Yrotation
											JOINT RightHandMiddle3
											{
												OFFSET -3.56743 0.00000 0.00000
												CHANNELS 3 Zrotation Xrotation Yrotation
												End site
												{
													OFFSET 0.00000 0.00000 0.00000
												}
											}
										}
									}
									JOINT RightHandRing1
									{
										OFFSET -12.69180 0.00000 -3.06433
										CHANNELS 3 Zrotation Xrotation Yrotation
										JOINT RightHandRing2
										{
											OFFSET -5.62556 0.00000 0.00000
											CHANNELS 3 Zrotation Xrotation Yrotation
											JOINT RightHandRing3
											{
												OFFSET -3.56744 0.00000 0.00000
												CHANNELS 3 Zrotation Xrotation Yrotation
												End site
												{
													OFFSET 0.00000 0.00000 0.00000
												}
											}
										}
									}
									JOINT RightHandPinky1
									{
										OFFSET -11.11390 0.00000 -6.03719
										CHANNELS 3 Zrotation Xrotation Yrotation
										JOINT RightHandPinky2
										{
											OFFSET -4.52789 0.00000 0.00000
											CHANNELS 3 Zrotation Xrotation Yrotation
											JOINT RightHandPinky3
											{
												OFFSET -2.46976 0.00000 0.00000
												CHANNELS 3 Zrotation Xrotation Yrotation
												End site
												{
													OFFSET 0.00000 0.00000 0.00000
												}
											}
										}
									}
								}
							}
						}
					}
					JOINT LeftShoulder
					{
						OFFSET 0.01000 7.91373 5.19711
						CHANNELS 3 Zrotation Xrotation Yrotation
						JOINT LeftArm
						{
							OFFSET 18.41580 0.00000 0.00000
							CHANNELS 3 Zrotation Xrotation Yrotation
							JOINT LeftForeArm
							{
								OFFSET 29.11090 0.00000 0.00000
								CHANNELS 3 Zrotation Xrotation Yrotation
								JOINT LeftHand
								{
									OFFSET 24.65040 0.00000 0.00000
									CHANNELS 3 Zrotation Xrotation Yrotation
									JOINT LeftHandThumb1
									{
										OFFSET 5.35114 -0.85590 3.97906
										CHANNELS 3 Zrotation Xrotation Yrotation
										JOINT LeftHandThumb2
										{
											OFFSET 4.52789 0.00000 0.00000
											CHANNELS 3 Zrotation Xrotation Yrotation
											JOINT LeftHandThumb3
											{
												OFFSET 2.46977 0.00000 0.00000
												CHANNELS 3 Zrotation Xrotation Yrotation
												End site
												{
													OFFSET 0.00000 0.00000 0.00000
												}
											}
										}
									}
									JOINT LeftHandIndex1
									{
										OFFSET 14.26970 0.00000 2.88139
										CHANNELS 3 Zrotation Xrotation Yrotation
										JOINT LeftHandIndex2
										{
											OFFSET 5.48836 0.00000 0.00000
											CHANNELS 3 Zrotation Xrotation Yrotation
											JOINT LeftHandIndex3
											{
												OFFSET 3.01859 0.00000 0.00000
												CHANNELS 3 Zrotation Xrotation Yrotation
												End site
												{
													OFFSET 0.00000 0.00000 0.00000
												}
											}
										}
									}
									JOINT LeftHandMiddle1
									{
										OFFSET 14.26970 0.00000 -0.09147
										CHANNELS 3 Zrotation Xrotation Yrotation
										JOINT LeftHandMiddle2
										{
											OFFSET 6.17440 0.00000 0.00000
											CHANNELS 3 Zrotation Xrotation Yrotation
											JOINT LeftHandMiddle3
											{
												OFFSET 3.56744 0.00000 0.00000
												CHANNELS 3 Zrotation Xrotation Yrotation
												End site
												{
													OFFSET 0.00000 0.00000 0.00000
												}
											}
										}
									}
									JOINT LeftHandRing1
									{
										OFFSET 12.69180 0.00000 -3.06433
										CHANNELS 3 Zrotation Xrotation Yrotation
										JOINT LeftHandRing2
										{
											OFFSET 5.62556 0.00000 0.00000
											CHANNELS 3 Zrotation Xrotation Yrotation
											JOINT LeftHandRing3
											{
												OFFSET 3.56744 0.00000 0.00000
												CHANNELS 3 Zrotation Xrotation Yrotation
												End site
												{
													OFFSET 0.00000 0.00000 0.00000
												}
											}
										}
									}
									JOINT LeftHandPinky1
									{
										OFFSET 11.11390 0.00000 -6.03719
										CHANNELS 3 Zrotation Xrotation Yrotation
										JOINT LeftHandPinky2
										{
											OFFSET 4.52789 0.00000 0.00000
											CHANNELS 3 Zrotation Xrotation Yrotation
											JOINT LeftHandPinky3
											{
												OFFSET 2.46976 0.00000 0.00000
												CHANNELS 3 Zrotation Xrotation Yrotation
												End site
												{
													OFFSET 0.00000 0.00000 0.00000
												}
											}
										}
									}
								}
							}
						}
					}
					JOINT pCube4
					{
						OFFSET 0.00000 10.91090 1.10792
						CHANNELS 3 Zrotation Xrotation Yrotation
						End site
						{
							OFFSET 0.00000 0.00000 0.00000
						}
					}
				}
			}
		}
	}
	JOINT RightUpLeg
	{
		OFFSET -9.98441 0.00000 0.00000
		CHANNELS 3 Zrotation Xrotation Yrotation
		JOINT RightLeg
		{
			OFFSET 0.00000 -42.11790 0.00000
			CHANNELS 3 Zrotation Xrotation Yrotation
			JOINT RightFoot
			{
				OFFSET 0.00000 -45.00020 -0.00001
				CHANNELS 3 Zrotation Xrotation Yrotation
				JOINT RightForeFoot
				{
					OFFSET 0.00000 -3.74820 0.00000
					CHANNELS 3 Zrotation Xrotation Yrotation
					JOINT RightToeBase
					{
						OFFSET 0.00000 0.06325 14.43120
						CHANNELS 3 Zrotation Xrotation Yrotation
						End site
						{
							OFFSET 0.00000 0.00000 0.00000
						}
					}
				}
			}
		}
	}
	JOINT LeftUpLeg
	{
		OFFSET 9.98441 0.00000 0.00000
		CHANNELS 3 Zrotation Xrotation Yrotation
		JOINT LeftLeg
		{
			OFFSET 0.00000 -42.11800 0.00000
			CHANNELS 3 Zrotation Xrotation Yrotation
			JOINT LeftFoot
			{
				OFFSET 0.00000 -45.00070 0.00000
				CHANNELS 3 Zrotation Xrotation Yrotation
				JOINT LeftForeFoot
				{
					OFFSET 0.00000 -3.74824 0.00000
					CHANNELS 3 Zrotation Xrotation Yrotation
					JOINT LeftToeBase
					{
						OFFSET 0.00000 0.06325 14.43110
						CHANNELS 3 Zrotation Xrotation Yrotation
						End site
						{
							OFFSET 0.00000 0.00000 0.00000
						}
					}
				}
			}
		}
	}
}
MOTION
Frames: 4
Frame Time: 0.050000
0.004685216878113569 -0.03811504047563529 -0.044697539508877435 -0.029378203129798625 -0.009015381576482847 0.007063570995517835 -3.7066862158060156 3.0434909725395376 -0.6229460834739338 -0.7617873954781939 3.326571905331047 0.29485694897280135 -0.9890265065269345 -1.3796477757432708 -2.254424215238951 -0.32883491669969095 0.3837353883558812 -1.0338427955996712 -0.8901208466917789 10.421388407712259 1.499120675133914 -0.1017721183203831 -0.8323268013890395 1.746740039743656 -0.46963053653312226 -15.717758597301126 0.21652898340944854 0.45640083666959347 0.6342464151177561 -11.362075307827405 69.14594651118354 23.695693539930666 9.069708435139361 20.535464005176365 5.9148391089797405 81.80902636977649 25.6061838787025 -0.18568546172338352 -6.312769121900663 4.507281897909093 -0.12180662323973471 -1.6224565259330905 -0.00043370068710053627 0.044016269775717376 -56.21459096214668 -0.002097616954744803 -0.030200847149178957 -56.18817000946845 -38.735614973034046 -0.02603395140666629 -0.020700502469742834 -0.012916406277485498 -0.017967138269585323 0.030238153571786604 0.006084657529785297 -0.03762689424072865 -0.039496505063771274 -36.699105531995905 0.012495386101423485 0.009180419745933713 0.025191304672442377 -0.04975200753874922 -0.015094916217171253 0.0034458172135600814 0.031124564153177783 -0.02258737005126568 -19.71116747370507 -0.031357567386272545 0.038513820978994036 0.038777066538837106 0.0006618002825811879 0.00021561385647959032 -0.026367854057307502 -0.011676929060201008 -0.04860273015748689 24.10305410860918 0.044998466963858 -0.019274803946520133 28.847271529284402 0.030913536317436846 -0.0011210339997873558 28.85456867953972 0.004646692101703677 0.00588332464799944 3.5527007283845324 1.1818544321144941 9.95595467855432 -62.84040136274262 26.161108149433247 -21.6544360880975 -42.10713861281674 6.495141328194431 -82.04366749422016 -16.22176884033209 1.5459096533202092 -0.7814795972874305 -0.4594395902489381 0.021788288966638744 -8.12725072473607 0.019233368976040454 0.033095120597001385 44.54847798919635 0.022933936058715618 0.03057282750371922 44.59065276352442 12.436802430581478 -0.04976805846948511 0.012087250133637189 0.03649093801677067 0.036168326102490975 0.020440841441039134 0.04789968890312325 -0.03195592985434386 -0.027815353640567076 11.104628134994375 -0.013662366840810658 0.03253004808442252 -0.017634499007309894 0.01710614757086993 -0.01996851000800632 -0.014416052140118147 0.02637400620529868 0.01519134904001193 4.809958184786849 0.024403083847074757 0.03690701573885979 0.013490489078196544 0.02475337432991549 0.016290415813153526 0.009748125037368462 -0.014503065473431892 0.016774578556837626 -5.58004740895406 -0.02952954851030563 0.003786359488989797 -6.677946674841108 0.0026395075745987463 0.02448604379361354 -6.702049745267951 0.039018962774316164 0.04610045288180824 -0.026311844425303182 -0.00343430167695317 -0.03404155856230203 8.034546672696411 3.5083347040066557 -19.184537786570758 -0.022238137979756198 10.363094135977335 0.011817457504135376 -5.585346481869885 -15.707346902827291 3.14551342764795 0.001263789354851486 -0.0019605336657544195 0.03432580624236782 -0.011976359253456925 4.714484572708268 -0.0281595167112529 12.468299991234801 -8.241503325902263 6.852232994524726 0.012388588844883591 46.40895964458415 -0.04658874995181616 -4.317093295969686 -14.70394494432132 -3.7955140637029983 0.010880201172096633 0.044566796645104725 0.007545474500909512 -0.02333296774440159 -10.701162996723149 -0.012866633324699818 
-0.028631146188617493 0.0025004385152058864 -0.009537700073510041 0.008041008690856222 -0.02298597403171655 0.021657839100302 -3.76345325332698 3.089610204593276 -0.6561064540496881 -0.8121808996993487 3.360035231768942 0.3352414802793854 -0.9874604708682476 -1.393784926623703 -1.9370376943296166 -0.35995366646735166 0.3797038621133395 -1.008875809745294 -0.8248216729146965 10.433707435274941 1.6294621902486974 -0.16310572832058923 -0.9106396770120886 1.6778393596307817 -0.5192900544288789 -15.85258142076771 0.16514449644666568 0.45087395740529057 0.6803805610029812 -11.681110359549416 69.58829814050891 24.177024480393214 7.1060596172287775 16.392061098128337 5.745600071034766 75.39883964820314 26.137741070986134 -0.19251550229570757 -5.942724959578603 4.562198373286446 -0.12098480903359907 -1.6026633089764808 -0.004624678209250051 -0.009106167987930652 -56.245282801960926 0.0008079441877924398 -0.03373022461903602 -56.238194932370156 -38.75105509435953 0.034129367659919196 -0.03185031757669111 -0.01452803704291987 0.037462711371170396 -0.011448201063812051 -0.03648231967810186 -0.03390287945649626 -0.023646547872449523 -36.67804187930979 -0.025315253614005346 -0.0013392228931222426 0.024327086717353664 0.018988665129760916 -0.01218766885742447 -0.038656058314410054 0.04500986913251655 0.027098557321511656 -19.761911848032167 0.0027681423030585413 -0.012074950459113307 0.006649296991649112 -0.009856329931892832 0.017052154801296984 -0.02698699903702268 0.03129963342934557 0.00409316933554975 24.08147386736521 -0.04029158791989046 0.003047951530143868 28.867731669175424 -0.0016142007390967474 -0.0018074472370724825 28.841753397892983 -0.0347353200865557 0.020557709385413868 3.0367502584459705 1.0016773864401969 10.386098850505643 -64.86425314059936 25.948799924622392 -16.815516799864405 -38.98720470677567 6.935088331270459 -75.85550140945928 -15.82989311661833 1.98735026662438 -0.7554245764518104 -0.522055540468782 0.04566176026339043 -8.100511710923493 0.0029122326379637064 -0.01890727237247127 44.54629438029772 -0.03972542013022081 0.04886171524642222 44.59028756675462 12.433169033710309 0.008324520523379049 -0.04299835270573016 0.04995622665775018 0.025680619141043172 -0.039728633328926254 0.03895418194900664 -0.04841986403946321 -0.02549806913766168 11.132023208955664 0.008078471718281206 -0.044215982848000344 -0.0017412442017088357 -0.040994471189921035 -0.026198748360935664 0.003397304931051755 0.021711393927452614 0.014970472807014924 4.773641479269232 -0.039614101965301456 0.01628174870260732 -0.015446938257377849 0.039134948194259035 0.023184049411064406 0.04252454415779399 -0.044148992792176905 0.027567142652201875 -5.584929765693876 0.012276798015548325 0.03856456740955317 -6.712104570026642 0.020533970055299035 -0.009238223781310837 -6.716748317397738 -0.04031049975366994 0.018853313360557983 -0.02508003387705342 -0.022273074811871862 7.00060157256939e-05 8.01791493431972 3.457663408774085 -19.238717051494493 -0.04436986220473776 10.34801803961435 0.015196286510324982 -5.601792266448197 -15.624194946352597 3.162757467151407 -0.014735134546382636 -0.010535814542108512 0.01617290113615925 0.04627495741972463 4.678241661125294 -0.003131704628054896 12.44338251009098 -8.238830980965611 6.9087275341892775 -0.03934320654962454 46.362344209404554 0.04984751587750058 -4.368327164374417 -14.750769966369594 -3.8249761252825007 -0.018160087631905016 -0.03278056909829936 0.006201473970867629 0.04016785278748647 -10.741380081267254 -0.010549475276462716 
-0.002190015386800661 0.020974720881381765 0.025055766991962145 0.04079379903794721 -0.017801796159741524 0.016055261816262236 -3.7788072821796392 2.990242455101188 -0.5716009988434364 -0.8443381417232082 3.3361247451419667 0.36762070959610316 -1.0487197279157807 -1.431254426446341 -1.6454546648746975 -0.45883548036198324 0.407074835021752 -0.9590921371774481 -0.7218961729763096 10.310789434617153 1.5903545712304694 -0.1483123282557761 -0.9517786926780425 1.4972868752772703 -0.48655394041363753 -15.919210504945198 0.20411689559042537 0.24697649926759385 0.7314097993209239 -11.855862002614895 70.02335459501687 24.58276355613793 5.511596035275209 13.083847060982851 5.22446960459837 69.90260666460864 26.521552164715487 -0.20380426370087382 -5.6520141566168425 4.530195746278312 -0.12922656786311576 -1.5478278963942966 0.03397042264997564 0.014484486318850324 -56.255093353146286 0.04973283317451783 0.01797514033293558 -56.20463105443288 -38.742530180461316 0.015771872830249858 0.006026930305515061 0.0247926886633664 -0.021650100563717332 -0.013600250396982002 -0.020944083131898168 -0.02607690137202688 0.021479963702110375 -36.71972344033158 0.026947652087359233 0.0020527034770120183 -0.017553346928071183 -0.00904692976840751 -0.002245045608708656 -0.014031376156945915 0.01414624048376295 -0.029021552355961558 -19.752054535302264 -0.048754718069824086 -0.015312241962616813 -0.021694567303554735 -0.0319660204950425 0.01850578897034221 -0.041312749950179 0.006063862709877165 -0.04124426005638563 24.065354991307103 -0.04143801060065666 -0.0297099756620694 28.89383173290849 0.017414681878999354 0.012183052016630455 28.867513210165875 9.123884448991688e-05 -0.02286169161082228 2.7228342949517095 0.9889586809642118 10.667752073919765 -66.6010357993701 25.723132609030156 -13.05229322192333 -37.01698390493308 7.035033596537338 -70.40508602515172 -15.623374617540769 2.176063551031599 -0.6651926330023085 -0.45504966790022444 0.02419879043295746 -8.16595900438332 0.04269662919322929 -0.013797609457826961 44.5966003274598 0.019430127228380296 -0.02496576209359464 44.610839662611575 12.459687191728404 -0.00943270310503553 0.03460110727074361 -0.028178098313704988 0.04935066705337967 -0.043199164521976585 -0.044092388284058766 -0.022988262499953917 -0.029000946653184468 11.135596784916737 -0.04524679581278472 -0.004555723491767764 0.007551284426270678 0.027647984223570326 -0.04752277137940987 -0.03197749990782055 0.044171008869401784 -0.008356399173743343 4.793093075519045 0.006989293769110059 0.006910102538011368 -0.00331815529647248 0.02043121876398873 0.002105456194436688 0.04040080499136447 0.012523425414827568 0.02966359101256677 -5.570700818439457 -0.03001645839158429 0.005081911310278222 -6.685973119689924 0.030267778506514402 -0.04970211377074482 -6.689774381657638 -0.028740383165591955 -0.018069265529058798 0.004317785430131058 -0.012453059805416314 0.01508761829207403 8.041180348935839 3.506709786420322 -19.252149441097306 -0.013570181290719546 10.351576557295063 0.006498937411619989 -5.608163385991817 -15.637440854276868 3.1866910915255753 -0.0024305079674170004 0.03942520730400892 0.03538351669164449 0.02512948185858211 4.697213820316881 0.016383923342634117 12.411037334539914 -8.231958283338086 6.9290123109774235 -0.03974577769966465 46.34586228205726 -0.026383193559995813 -4.314663495014585 -14.726684345830108 -3.820104350666832 0.029737670587568456 0.009676553784847462 -0.007644317750618783 -0.014074095229097668 -10.712648047995726 -0.011170211972623818 
-0.0027050804850923486 0.019211438361222185 -0.016997854980385026 -0.038044693293754636 -0.011970973163160127 -0.00206434456815561 -3.8124926672688484 2.8467581429051676 -0.6219920013359979 -0.8851954136442896 3.412773110623664 0.33468422866229597 -1.0968550782569748 -1.3970083006453748 -1.49256355997554 -0.4516397631116173 0.3770500850943864 -0.8860289018970212 -0.6798198318173145 10.340932743236497 1.5187613391161365 -0.05965513503472141 -0.9859829421080296 1.3256062194959517 -0.3943086827285627 -15.950284922289857 0.15630489746810808 -0.06419375820284694 0.7418630419785327 -12.184385805100028 70.4273379947237 24.535717599823325 4.269408689898862 9.853183249195132 3.8895184405081924 67.00132730473163 26.32780933719306 -0.23789210129239322 -5.3126171118782635 4.551825438557594 -0.10614091335549891 -1.5645126246397107 0.029582793878567527 0.017414892751900963 -56.24200409150774 0.024240203005631806 -0.046557128711052116 -56.25879840424279 -38.8108101565716 -0.01605482075660996 -0.032375168469297465 0.00042715799029014953 0.01121509586818056 0.024362256277375018 -0.027144324515645368 0.012201030489780237 -0.030823103850477186 -36.66322735421064 0.01779855275693031 0.00367002380430853 0.009400784699693025 -0.020587307166706537 -0.007644731795536295 0.025462860938280672 0.03856770444854747 -0.04553112732435664 -19.759417448594057 -0.0017785647419478272 0.020650119443727518 0.040882691544691985 0.013828448586475387 0.01645801652953454 0.03804519664455466 -0.026991681964364366 0.045630519861897645 24.091240412111553 -0.004117510948177495 0.020725534002773903 28.876005286425627 -0.02317349266189454 -0.018623564496792443 28.901716876617233 -0.009386599456845545 0.02809709638668416 2.595666814063753 0.991080381532848 10.903536915713904 -67.75875605785959 25.82452007272878 -10.691483219900157 -34.18333359762507 6.363517303074645 -66.4671806757535 -15.084940227930254 2.3113449610592722 -0.6318231567580369 -0.4367247598182462 0.11171848834848515 -8.146070371215163 0.026868347367911 0.04380809447535336 44.61558776598111 -0.032195085412523444 -0.001743953950445977 44.56466084329084 12.427396300926963 0.026891990748167803 0.012184155194164794 -0.03380411901643873 -0.027266971010657268 0.0040806359174212605 -0.04940294698461291 -0.045728480326618595 0.00965885583505875 11.111364313185694 -0.024934333753077107 -0.018505829876439717 0.007267682778970677 -0.041286865546640114 -0.028207512341522304 0.016728021993281477 -0.013100888940532452 0.020125974287409493 4.765822482930088 -0.03204365497781313 -0.011020898092075758 -0.024874536599688923 -0.04855498127861565 0.0260464658094256 -0.02816157384741949 0.02522690892788683 -0.027066020289027742 -5.570161304114614 -0.017347012930573787 0.04815315714789069 -6.748500249548447 0.007810713164186301 0.0033291117611606164 -6.694213930468044 0.015135094203832909 -0.03390177919774177 0.027154950972877092 -0.03408021219632223 -0.02225864267653012 8.031325117470454 3.5423635619862814 -19.217154991649718 0.020966342104835493 10.399003573219225 -0.00020026255696539708 -5.586937548138011 -15.627443447689371 3.181285013888604 -0.021172983668437208 -0.03755091733221844 0.020285209106432896 -0.028536307167305836 4.692997444817043 0.016135245637243542 12.421137844111026 -8.235290401715883 6.918304746953692 -0.022495767075868332 46.39990823888841 0.01058364849298583 -4.295775931085083 -14.700633250034892 -3.7942174835186 0.026215066968289725 0.009422090954628889 0.021137075182986513 0.034027471448735 -10.696801756490741 -0.0010479766977309483 
